<svg xmlns="http://www.w3.org/2000/svg" viewBox="0 0 32 32">
  <defs>
    <clipPath id="jarBody">
      <rect x="7" y="9" width="18" height="20" rx="3"/>
    </clipPath>
  </defs>
  <rect x="9" y="4" width="14" height="3" rx="1" fill="#6b7280"/>
  <rect x="10" y="7" width="12" height="2" fill="#4b5563"/>
  <rect x="7" y="9" width="18" height="20" rx="3" fill="#e5e7eb" stroke="#9ca3af" stroke-width="1.2"/>
  <g clip-path="url(#jarBody)">
    <rect x="9" y="22" width="9" height="3" rx="0.5" fill="#4ade80" stroke="#15803d" stroke-width="0.3" transform="rotate(-12 13.5 23.5)"/>
    <rect x="14" y="20" width="9" height="3" rx="0.5" fill="#86efac" stroke="#15803d" stroke-width="0.3" transform="rotate(8 18.5 21.5)"/>
    <rect x="10" y="25" width="9" height="3" rx="0.5" fill="#4ade80" stroke="#15803d" stroke-width="0.3" transform="rotate(5 14.5 26.5)"/>
    <circle cx="13.5" cy="23.5" r="0.6" fill="#15803d" transform="rotate(-12 13.5 23.5)"/>
    <circle cx="18.5" cy="21.5" r="0.6" fill="#15803d" transform="rotate(8 18.5 21.5)"/>
    <circle cx="14.5" cy="26.5" r="0.6" fill="#15803d" transform="rotate(5 14.5 26.5)"/>
  </g>
  <rect x="9" y="11" width="1.5" height="16" rx="0.75" fill="#ffffff" opacity="0.5"/>
</svg>
